<svg width="17" height="14" viewBox="0 0 17 14" fill="none" xmlns="http://www.w3.org/2000/svg">
<path d="M12.0176 0.5C12.4823 0.495962 12.9439 0.584759 13.374 0.760742C13.804 0.936723 14.1949 1.19686 14.5234 1.52539C14.8519 1.85396 15.1122 2.24478 15.2881 2.6748C15.464 3.10482 15.5519 3.56569 15.5479 4.03027C15.5438 4.495 15.4471 4.95482 15.2637 5.38184C15.1031 5.75536 14.879 6.09759 14.6016 6.39355L14.4795 6.51758L7.99902 12.998L1.52441 6.52344C0.868439 5.86712 0.5 4.97677 0.5 4.04883C0.500086 3.12108 0.867641 2.23045 1.52344 1.57422L1.52441 1.5752C2.18073 0.919075 3.07099 0.549837 3.99902 0.549805C4.86903 0.549805 5.70568 0.874017 6.34766 1.45508L6.47363 1.5752L7.64551 2.74609L7.99902 3.09863L8.35254 2.74609L9.52441 1.5752L9.53125 1.56836C9.85405 1.23422 10.2401 0.967555 10.667 0.78418C11.0939 0.600814 11.553 0.504078 12.0176 0.5Z" stroke="#7B0323"/>
</svg>
